<svg width="100%" height="100%" preserveAspectRatio="xMidYMid meet"
  
  
   viewBox="0 0 136.15347 121.9745"
   version="1.1"
   id="svg1"
   sodipodi:docname="TOW IN ONE vector LOGO.svg"
   inkscape:version="1.4 (86a8ad7, 2024-10-11)"
   xml:space="preserve"
   inkscape:export-filename="LOGO 3 final.png"
   inkscape:export-xdpi="96"
   inkscape:export-ydpi="96"
   xmlns:inkscape="http://www.inkscape.org/namespaces/inkscape"
   xmlns:sodipodi="http://sodipodi.sourceforge.net/DTD/sodipodi-0.dtd"
   xmlns="http://www.w3.org/2000/svg"
   xmlns:svg="http://www.w3.org/2000/svg"><sodipodi:namedview
     id="namedview1"
     pagecolor="#ffffff"
     bordercolor="#000000"
     borderopacity="0.25"
     inkscape:showpageshadow="2"
     inkscape:pageopacity="0.0"
     inkscape:pagecheckerboard="0"
     inkscape:deskcolor="#d1d1d1"
     inkscape:document-units="mm"
     inkscape:zoom="1"
     inkscape:cx="354.99999"
     inkscape:cy="229"
     inkscape:window-width="1600"
     inkscape:window-height="930"
     inkscape:window-x="-6"
     inkscape:window-y="-6"
     inkscape:window-maximized="1"
     inkscape:current-layer="layer1"
     showguides="true"
     inkscape:export-bgcolor="#ffffff00" /><defs
     id="defs1"><inkscape:path-effect
       effect="taper_stroke"
       start_shape="center | center"
       end_shape="center | center"
       id="path-effect18"
       is_visible="true"
       lpeversion="1"
       stroke_width="3.2"
       subpath="1"
       attach_start="1.036"
       end_offset="0.9"
       start_smoothing="0.7"
       end_smoothing="0.7"
       jointype="extrapolated"
       miter_limit="100" /><inkscape:path-effect
       effect="fill_between_many"
       method="bsplinespiro"
       autoreverse="false"
       close="false"
       join="false"
       linkedpaths="#path16,0,1"
       id="path-effect19"
       is_visible="true"
       lpeversion="0" /></defs><g
     inkscape:label="Layer 1"
     inkscape:groupmode="layer"
     id="layer1"
     transform="translate(-20.829823,-33.643576)"><g
       id="g39"
       inkscape:export-filename="g39.png"
       inkscape:export-xdpi="96"
       inkscape:export-ydpi="96"><path
         id="path65"
         style="fill:#2eb6d8;fill-opacity:1;stroke:none;stroke-width:0.290901;stroke-linecap:round;stroke-linejoin:round"
         d="m 75.616642,97.29588 c -1.316627,1.64401 -2.539627,3.04456 -3.679477,4.58537 l 28.950715,36.22214 c -20.369013,11.47546 -44.200025,10.35688 -60.628841,1.85829 36.975243,31.28358 65.567731,4.18273 76.931211,-14.64976 -3.06188,3.58182 -6.65478,6.67301 -10.62881,9.20513 -0.1663,0.11786 -0.33588,0.22611 -0.50281,0.3421 z"
         sodipodi:nodetypes="cccccccc" /><path
         style="fill:#f1701f;fill-opacity:1;stroke:none;stroke-width:0.290901;stroke-linecap:round;stroke-linejoin:round"
         d="m 21.287587,106.82003 c 10.721995,50.6485 61.22864,36.02131 65.36654,34.81493 -1.84962,0.25563 -3.71267,0.4023 -5.5795,0.43925 -1.12935,-0.0486 -2.256605,-0.13736 -3.379635,-0.26614 -26.235771,-0.57842 -47.450787,-16.86472 -56.407405,-34.98804 z"
         id="path64"
         sodipodi:nodetypes="ccccc" /><path
         style="fill:#2eb6d8;fill-opacity:1;stroke:none;stroke-width:0.290901;stroke-linecap:round;stroke-linejoin:round"
         d="m 128.70117,93.972751 c 0.005,0.15415 0.009,0.30832 0.0129,0.46251 -0.001,5.016879 -0.79532,10.002039 -2.35231,14.771189 -6.3037,24.51934 -25.91752,41.37827 -44.922833,46.41163 45.984563,-0.32453 51.125053,-40.25902 47.262223,-61.645329 z"
         id="path63"
         sodipodi:nodetypes="scccss" /><path
         id="path62"
         style="fill:#2eb6d8;fill-opacity:1;stroke:none;stroke-width:0.290901;stroke-linecap:round;stroke-linejoin:round"
         d="M 27.640688,65.747081 C 10.629336,97.34781 27.315167,124.45987 57.428534,135.64463 54.115817,133.76718 51.044405,131.4977 48.27457,128.89155 l 31.297612,-38.441389 -3.91112,-4.49402 -31.64618,38.761509 C 27.624629,107.64073 23.293796,83.946111 27.640688,65.747081 Z"
         sodipodi:nodetypes="ccccccc" /><path
         style="fill:#f1701f;fill-opacity:1;stroke:none;stroke-width:0.290901;stroke-linecap:round;stroke-linejoin:round"
         d="m 118.50851,64.982792 c 2.33228,2.969379 4.30327,6.205499 5.87148,9.640239 11.94157,22.362049 8.83604,48.046619 -1.78387,64.632749 37.71674,-34.99205 -0.7006,-71.211239 -4.08761,-74.272988 z"
         id="path61"
         sodipodi:nodetypes="cccc" /><path
         style="fill:#2eb6d8;fill-opacity:1;stroke:none;stroke-width:0.290901;stroke-linecap:round;stroke-linejoin:round"
         d="m 88.804907,47.433993 c 5.11038,0.843692 10.04898,2.515141 14.621323,4.948535 23.03436,10.451804 36.2184,32.651283 37.91448,52.235572 0.59786,-3.36203 0.91332,-6.76819 0.94309,-10.182839 C 142.2519,48.665751 95.195117,47.395464 88.804907,47.433993 Z"
         id="path60"
         sodipodi:nodetypes="ccccc" /><path
         style="fill:#f1701f;fill-opacity:1;stroke:none;stroke-width:0.290901;stroke-linecap:round;stroke-linejoin:round"
         d="m 95.425177,38.466065 c -13.30693,-0.0048 -28.35252,5.320627 -40.157235,16.083256 3.898094,-2.534037 8.146147,-4.48379 12.609049,-5.787244 7.919471,-2.770631 15.933116,-3.867245 23.651266,-3.605982 16.248543,0.550024 31.158753,7.067757 41.121513,16.34939 -5.58784,-8.760027 -19.04941,-23.032916 -37.224593,-23.03942 z"
         id="path59"
         sodipodi:nodetypes="sccscs" /><path
         style="fill:#2eb6d8;fill-opacity:1;stroke:none;stroke-width:0.290901;stroke-linecap:round;stroke-linejoin:round"
         d="M 60.368923,36.996387 C 21.927065,50.890691 23.409375,88.146701 36.525417,110.98825 34.981827,106.7983 34.034978,102.41214 33.712668,97.95855 30.495696,71.829971 43.652395,48.447046 60.368923,36.996387 Z"
         id="path58"
         sodipodi:nodetypes="cccc" /><path
         style="fill:#2eb6d8;fill-opacity:1;stroke:none;stroke-width:0.290901;stroke-linecap:round;stroke-linejoin:round"
         d="m 36.921258,76.926761 c 1.027424,-2.58421 2.279157,-5.0735 3.740857,-7.43934 C 53.362752,46.378672 79.481212,35.816456 99.739813,36.392886 52.481834,22.700459 39.725206,63.936542 36.921258,76.926761 Z"
         id="path1"
         sodipodi:nodetypes="cccc" /><path
         style="fill:#f1701f;fill-opacity:1;stroke-linejoin:bevel"
         d="m 100.1221,69.595421 c -7.062693,-0.11694 -14.704403,3.83098 -18.677203,9.66663 l 4.15067,4.71288 c 4.05701,-4.75501 7.81466,-8.07423 14.426803,-8.37988 5.02274,0.0832 9.70527,2.49909 12.31656,9.62319 1.88831,5.15169 1.03343,15.076999 1.08623,22.799129 0.011,1.60267 -0.0124,3.04289 -0.0465,4.37389 1.51476,1.88227 3.81524,4.73672 5.64203,7.00526 0.15119,-1.7886 0.44141,-5.96574 0.40411,-11.42049 -0.0483,-7.07724 1.34761,-17.186889 -1.45108,-24.822259 -3.32617,-9.07445 -10.67146,-13.43945 -17.85162,-13.55835 z"
         id="path94"
         sodipodi:nodetypes="sccssccccss" /><path
         id="path96"
         style="fill:#2eb6d8;fill-opacity:1;stroke-linejoin:bevel"
         d="m 61.824627,68.753541 c -7.180166,0.1189 -14.525451,4.4839 -17.851623,13.55835 -2.798688,7.63537 -1.402727,17.745019 -1.451074,24.822259 -0.03726,5.45475 0.01905,10.66088 0.170248,12.44948 1.826789,-2.26854 4.361132,-4.88913 5.875894,-6.7714 -0.03412,-1.331 -0.05746,-4.03407 -0.04651,-5.63674 0.05275,-7.72213 -0.802073,-17.647439 1.086239,-22.799119 2.611288,-7.12411 6.826105,-9.44648 11.848839,-9.52965 0.793455,-0.0131 1.5944,0.0522 2.157725,0.12841 1.08097,-1.98682 2.675418,-3.83802 4.406206,-5.27152 -2.174082,-0.68437 -3.896552,-0.98814 -6.195944,-0.95007 z"
         sodipodi:nodetypes="sssccsscccs" /><path
         style="fill:#2eb6d8;fill-opacity:1;stroke-linejoin:bevel"
         d="m 96.821957,77.220671 c -2.03292,0.48761 -4.33561,1.87492 -6.03859,3.08434 0.83924,1.58019 0.80144,1.63045 1.21445,3.51243 0.56126,2.55757 -1.67532,7.3857 -10.90402,18.364639 1.30506,1.59547 2.90062,3.26278 4.07554,4.69963 10.93412,-12.267769 13.44078,-17.495589 13.44078,-21.941739 0,-2.84285 -0.57598,-5.33813 -1.78816,-7.7193 z"
         id="path13"
         sodipodi:nodetypes="ccsccsc" /><path
         style="fill:#f1701f;fill-opacity:1;stroke-linejoin:bevel"
         d="m 78.541452,66.512411 c -9.010699,0.71634 -16.159218,8.30465 -16.159216,17.49196 0,4.46869 1.330338,8.30248 4.104142,11.4086 l 4.182691,-5.07927 c -1.377072,-1.86876 -1.896199,-4.04499 -1.814876,-6.56291 0.185496,-5.74339 3.782322,-8.9067 7.600569,-10.31565 0.17524,-3.16171 1.04257,-5.37892 2.08669,-6.94273 z"
         id="path15"
         sodipodi:nodetypes="csccscc" /><path
         id="path98"
         style="fill:#2eb6d8;fill-opacity:1;stroke-linejoin:bevel"
         d="m 88.211827,53.792049 c -0.14992,0.63305 -0.46456,1.514136 -0.72981,2.206219 -0.7124,1.85879 -1.82329,2.554158 -1.82329,3.372222 0,1.691135 -0.86054,2.864122 -1.94963,3.928682 -0.30284,0.32258 -0.56349,0.55316 -0.93018,0.83871 -0.54536,0.42467 -1.34515,1.146449 -1.98127,1.826249 -0.15899,0.1699 -0.30586,0.35007 -0.44339,0.54208 -0.0501,0.0577 -0.0935,0.11313 -0.17415,0.21911 -0.915285,1.20295 -1.919195,3.1974 -2.193135,6.18619 2.649535,-0.5645 6.723635,-0.248 7.949375,0.47439 1.80274,-1.41306 3.58573,-2.53022 5.50768,-3.26647 -1.45966,-1.52074 -3.15441,-2.4396 -5.04517,-2.98586 1.87354,-1.66182 3.66228,-3.744069 3.74757,-7.506522 0.0542,-2.391081 -0.4457,-4.16218 -1.9346,-5.835 z"
         sodipodi:nodetypes="csscssccccccsc" /><path
         id="path4"
         style="fill:#f1701f;fill-opacity:1;stroke-linejoin:bevel"
         d="m 94.665017,97.64901 c -1.24899,1.50392 -2.51201,3.17185 -3.8101,4.72168 l 22.023393,27.37246 1.48385,-1.37614 1.71867,-1.78367 1.09881,-1.25629 z"
         sodipodi:nodetypes="ccccccc" /><path
         id="path6"
         style="fill:#f1701f;fill-opacity:1;stroke-linejoin:bevel"
         d="m 75.701232,108.7452 -20.257267,25.75854 2.27792,1.30508 1.461806,0.63935 1.411157,0.5483 19.134294,-23.54496 c -1.29482,-1.47208 -2.74738,-3.17782 -4.02791,-4.70631 z"
         sodipodi:nodetypes="ccccccc" /><path
         style="fill:#f1701f;fill-opacity:1;stroke-linejoin:bevel"
         d="m 76.210692,75.136261 -4.290107,4.10469 13.196662,15.72124 2.13002,-2.6953 1.59687,-2.31176 z"
         id="path8"
         sodipodi:nodetypes="cccccc" /><path
         id="path38"
         style="fill:#2eb6d8;fill-opacity:1;stroke-linejoin:bevel"
         d="m 83.107577,45.422748 c -1.5249,0.146259 -3.05566,0.357746 -4.589375,0.6165 v 4.429187 c -4.336875,1.250245 -7.947252,6.03606 -7.321,10.51512 0.09541,0.68242 0.261062,1.422197 0.698566,1.446747 1.212196,0.068 3.973604,-2.469001 3.954894,-3.018227 -0.11239,-3.299056 3.00925,-5.664024 6.117455,-4.882389 0.16221,-0.333629 0.31504,-0.684979 0.43615,-1.000973 0.49267,-1.285465 0.65771,-2.33863 0.70693,-3.056144 -0.001,-3.22e-4 -0.002,-7.12e-4 -0.004,-10e-4 z"
         sodipodi:nodetypes="cccssscsccc" /><path
         id="path37"
         style="fill:#f1701f;fill-opacity:1;stroke-linejoin:bevel"
         d="m 84.004017,50.961326 c -0.0524,1.403856 -0.53837,2.722572 -1.16374,3.891164 1.19667,0.589569 1.94923,1.355114 2.60929,2.941859 1.08333,-1.490583 1.71646,-2.957647 2.14973,-4.740279 -1.23014,-1.382108 -2.24407,-1.768508 -3.59528,-2.092744 z"
         sodipodi:nodetypes="ccccc" /><path
         d="m 163.17892,79.053218 c 0,0 14.92454,20.03372 17.02507,49.952672 2.02382,28.82641 -16.83798,54.62989 -16.83798,54.62989"
         id="path19"
         style="fill:none"
         inkscape:original-d="M 0,0"
         inkscape:path-effect="#path-effect19"
         transform="translate(-24.972638,-37.918418)" /><path
         style="opacity:1;fill:#2eb6d8;fill-opacity:1;fill-rule:nonzero;stroke:none;stroke-width:2;stroke-linejoin:bevel"
         d="m 185.64706,-82.243985 c -0.0215,-1.077009 -0.0707,-2.137363 -0.14615,-3.180267 -1.19038,-16.427688 -6.36031,-29.098828 -10.0661,-36.440248 l 0,0 c -2.30512,-4.56797 -4.42491,-7.84538 -5.90525,-9.95538 l 0,0 0,0 0,0 c -0.82265,-1.17257 -1.46354,-2.00467 -1.91679,-2.5708 l 0,0 c -0.23684,-0.29583 -0.41213,-0.50577 -0.53706,-0.65257 l 0,0 c 0,0 0,0 0,0 -0.0633,-0.0744 -0.10939,-0.12746 -0.14237,-0.16509 -0.0165,-0.0188 -0.0284,-0.0323 -0.037,-0.042 0,0 0,0 0,0 -0.009,-0.01 -0.0132,-0.0148 -0.0132,-0.0148 0,0 0.003,0.006 0.0102,0.0169 0,0 0,0 0,0 0.007,0.0114 0.0157,0.0261 0.0288,0.0479 0.0264,0.0441 0.0609,0.10187 0.1112,0.18717 0,0 1e-5,0 1e-5,0 l 0,0 c 0.1,0.16942 0.23322,0.39743 0.42242,0.72909 l 0,0 c 0.36202,0.6346 0.86327,1.53212 1.52762,2.79736 l 0,0 0,0 0,0 c 1.18649,2.25963 2.91228,5.71954 4.81365,10.36941 l 0,0 c 3.02833,7.40887 7.44751,20.14099 8.51837,35.916594 0.0673,0.98974 0.1118,1.996767 0.13229,3.020606 0.0357,1.782812 -0.006,3.552054 -0.11608,5.301868 -0.84161,13.618219 -5.52874,25.684828 -8.30014,32.156287 l 0,0 c -1.92298,4.48367 -3.69602,7.977903 -4.84961,10.1752 l 0,0 c -0.67163,1.279246 -1.17759,2.200397 -1.53732,2.846798 l 0,0 c -0.19144,0.344018 -0.32313,0.576942 -0.42395,0.754301 l 0,0 c -0.051,0.08964 -0.0845,0.148187 -0.11135,0.19509 l 0,0 c 0,0 0,0 0,0 -0.0104,0.02329 -0.0207,0.04054 -0.0275,0.05108 -0.007,0.01081 -0.0111,0.01623 -0.0115,0.01681 0,0 0,0 0,0 0,0 0,0 0,0 0,0 0,0 0,0 0,0 0,0 0,0 0,0 0,0 0,0 0,0 0,0 0,0 0,0 0,0 0,0 -2e-5,3e-5 -2e-5,2.6e-5 -2e-5,2.6e-5 0,0 0,4e-6 2e-5,-2.6e-5 0,0 0,0 0,0 0,0 0,0 0,0 0,0 0,0 0,0 0,0 0,0 0,0 0,0 0,0 0,0 0,0 0,0 0,0 0,0 0,0 0,0 4.2e-4,-5.81e-4 0.004,-0.0062 0.0124,-0.01615 0.008,-0.0097 0.0211,-0.02502 0.0397,-0.04224 0,0 0,0 0,0 l 0,0 c 0.0341,-0.03852 0.0821,-0.09326 0.14786,-0.169607 l 0,0 c 0.12882,-0.14959 0.31109,-0.365023 0.55611,-0.666078 l 0,0 c 0.46367,-0.569699 1.12609,-1.413065 1.97283,-2.587935 l 0,0 c 1.48119,-2.055169 3.65211,-5.293796 5.99836,-9.710499 v 0 c 3.43481,-6.457629 8.80644,-18.316084 9.72782,-32.802742 0.11499,-1.833393 0.15922,-3.690867 0.12171,-5.566169 z"
         id="path16"
         sodipodi:nodetypes="csc"
         inkscape:linked-fill="path19"
         transform="translate(-28.676805,176.3999)"
         inkscape:original-d="m 166.88309,-135.2651 c 0,0 14.92454,20.03372 17.02507,49.952671 2.02382,28.826412 -16.83798,54.629888 -16.83798,54.629888"
         inkscape:path-effect="#path-effect18" /></g></g></svg>
